<svg id="visual" viewBox="0 0 1920 1080" width="1920" height="1080" xmlns="http://www.w3.org/2000/svg" xmlns:xlink="http://www.w3.org/1999/xlink" version="1.1"><path d="M0 737L45.7 735.8C91.3 734.7 182.7 732.3 274.2 715.3C365.7 698.3 457.3 666.7 548.8 652.5C640.3 638.3 731.7 641.7 823 652.5C914.3 663.3 1005.7 681.7 1097 688.3C1188.3 695 1279.7 690 1371.2 692.7C1462.7 695.3 1554.3 705.7 1645.8 703C1737.3 700.3 1828.7 684.7 1874.3 676.8L1920 669L1920 1081L1874.3 1081C1828.7 1081 1737.3 1081 1645.8 1081C1554.3 1081 1462.7 1081 1371.2 1081C1279.7 1081 1188.3 1081 1097 1081C1005.7 1081 914.3 1081 823 1081C731.7 1081 640.3 1081 548.8 1081C457.3 1081 365.7 1081 274.2 1081C182.7 1081 91.3 1081 45.7 1081L0 1081Z" fill="#60bff5"></path><path d="M0 724L45.7 732C91.3 740 182.7 756 274.2 766.7C365.7 777.3 457.3 782.7 548.8 776.3C640.3 770 731.7 752 823 737.8C914.3 723.7 1005.7 713.3 1097 712.7C1188.3 712 1279.7 721 1371.2 735.8C1462.7 750.7 1554.3 771.3 1645.8 781.2C1737.3 791 1828.7 790 1874.3 789.5L1920 789L1920 1081L1874.3 1081C1828.7 1081 1737.3 1081 1645.8 1081C1554.3 1081 1462.7 1081 1371.2 1081C1279.7 1081 1188.3 1081 1097 1081C1005.7 1081 914.3 1081 823 1081C731.7 1081 640.3 1081 548.8 1081C457.3 1081 365.7 1081 274.2 1081C182.7 1081 91.3 1081 45.7 1081L0 1081Z" fill="#50a7e2"></path><path d="M0 823L45.7 828.5C91.3 834 182.7 845 274.2 838C365.7 831 457.3 806 548.8 802C640.3 798 731.7 815 823 832C914.3 849 1005.7 866 1097 875.7C1188.3 885.3 1279.7 887.7 1371.2 882.8C1462.7 878 1554.3 866 1645.8 855.3C1737.3 844.7 1828.7 835.3 1874.3 830.7L1920 826L1920 1081L1874.3 1081C1828.7 1081 1737.3 1081 1645.8 1081C1554.3 1081 1462.7 1081 1371.2 1081C1279.7 1081 1188.3 1081 1097 1081C1005.7 1081 914.3 1081 823 1081C731.7 1081 640.3 1081 548.8 1081C457.3 1081 365.7 1081 274.2 1081C182.7 1081 91.3 1081 45.7 1081L0 1081Z" fill="#4390ce"></path><path d="M0 929L45.7 934.2C91.3 939.3 182.7 949.7 274.2 950C365.7 950.3 457.3 940.7 548.8 937.2C640.3 933.7 731.7 936.3 823 925C914.3 913.7 1005.7 888.3 1097 877.3C1188.3 866.3 1279.7 869.7 1371.2 878.5C1462.7 887.3 1554.3 901.7 1645.8 902C1737.3 902.3 1828.7 888.7 1874.3 881.8L1920 875L1920 1081L1874.3 1081C1828.7 1081 1737.3 1081 1645.8 1081C1554.3 1081 1462.7 1081 1371.2 1081C1279.7 1081 1188.3 1081 1097 1081C1005.7 1081 914.3 1081 823 1081C731.7 1081 640.3 1081 548.8 1081C457.3 1081 365.7 1081 274.2 1081C182.7 1081 91.3 1081 45.7 1081L0 1081Z" fill="#3879b9"></path><path d="M0 1011L45.7 1008C91.3 1005 182.7 999 274.2 997.7C365.7 996.3 457.3 999.7 548.8 1002C640.3 1004.3 731.7 1005.7 823 999.3C914.3 993 1005.7 979 1097 969.7C1188.3 960.3 1279.7 955.7 1371.2 953.2C1462.7 950.7 1554.3 950.3 1645.8 962.3C1737.3 974.3 1828.7 998.7 1874.3 1010.8L1920 1023L1920 1081L1874.3 1081C1828.7 1081 1737.3 1081 1645.8 1081C1554.3 1081 1462.7 1081 1371.2 1081C1279.7 1081 1188.3 1081 1097 1081C1005.7 1081 914.3 1081 823 1081C731.7 1081 640.3 1081 548.8 1081C457.3 1081 365.7 1081 274.2 1081C182.7 1081 91.3 1081 45.7 1081L0 1081Z" fill="#2e63a4"></path></svg>