<svg width="575" height="549" viewBox="0 0 575 549" fill="none" xmlns="http://www.w3.org/2000/svg">
<g clip-path="url(#clip0_57_77)">

<path d="M415.335 195.691C414.768 198.975 411.931 200.801 411.451 201.093C409.052 202.578 407.954 201.655 405.474 202.946C402.507 204.487 403.009 206.391 400.791 208.035C396.005 211.585 389.89 205.592 384.306 208.959C381.294 210.779 380.611 214 377.193 214.514C375.862 214.715 373.803 214.556 373.317 214.514C371.927 214.395 370.349 214.264 370.248 213.743C370.102 213.036 372.997 212.709 373.637 210.813C374.131 209.356 372.771 208.529 373.317 207.417C374.088 205.856 377.033 207.002 378.807 205.106C379.433 204.439 379.228 204.12 380.429 200.787C380.873 199.545 381.272 198.53 381.556 197.85C381.156 198.079 380.355 198.447 379.295 198.468C378.778 198.481 377.388 198.51 376.705 197.698C375.942 196.788 376.349 195.169 377.033 194.15C378.37 192.143 380.393 193.003 383.17 191.067C385.984 189.095 385.81 186.88 387.534 186.741C389.62 186.575 390.238 189.789 392.872 189.983C394.412 190.094 394.945 189.045 398.689 186.9C401.357 185.366 402.695 184.596 403.86 184.428C408.289 183.783 413.567 187.699 415.008 192.143C415.203 192.754 415.612 194.059 415.335 195.691ZM358.772 279.01C358.38 280.524 357.616 280.586 356.831 282.406C355.725 284.96 356.343 286.891 355.704 287.036C355.143 287.161 354.192 285.856 353.761 284.564C353.174 282.794 353.908 281.995 353.602 279.628C353.42 278.245 353.166 278.468 352.796 276.698C352.38 274.761 351.936 272.636 352.955 270.677C353.486 269.651 354.765 268.005 355.863 268.213C356.241 268.282 356.714 268.602 358.286 274.845C358.897 277.274 359.027 278.018 358.772 279.01ZM306.573 227.247C305.155 228.491 303.104 227.54 298.574 226.782C299.999 225.811 301.389 225.026 302.857 224.394C304.145 223.838 305.781 223.213 307.744 222.651C307.992 224.539 307.614 226.339 306.573 227.247ZM293.484 246.689C291.775 252.202 289.004 255.993 287.665 257.798C287.259 258.347 286.859 258.874 286.474 259.395C280.852 259.464 276.983 258.381 276.03 256.173C275.281 254.438 276.322 251.939 277.325 249.542C279.034 245.447 281.543 242.821 282.656 241.668C284.256 240.024 285.724 238.51 287.084 237.128C290.734 237.691 293.28 238.614 294.21 240.669C294.873 242.127 294.415 243.668 293.484 246.689ZM457.345 183.27C455.084 181.075 450.888 179.818 447.412 180.728C444.642 181.45 444.038 183.096 442.322 182.812C439.769 182.381 439.595 178.486 436.984 174.708C433.195 169.202 426.643 167.397 424.622 166.841C416.541 164.612 409.321 167.46 406.202 168.688C398.973 171.542 397.242 174.992 387.294 178.645C384.843 179.541 381.425 180.624 378.567 179.103C377.2 178.374 375.673 176.895 375.658 175.173C375.636 172.813 378.436 170.271 382.69 169.848C381.847 168.716 380.4 167.161 378.327 166.841C374.975 166.321 372.4 169.41 371.535 168.688C370.721 168.014 371.986 164.446 374.692 161.981C376.756 160.092 378.239 160.142 381.236 158.274C383.978 156.565 386.886 154.17 386.567 153.65C386.297 153.205 383.942 154.468 380.022 155.496C373.178 157.294 372.262 155.559 368.874 157.121C363.696 159.502 364.735 164.058 359.419 165.911C357.158 166.702 353.398 167.133 351.9 165.217C350.977 164.037 350.991 162.051 351.9 160.821C352.962 159.391 354.424 160.072 356.75 158.51C358.242 157.509 358.219 156.844 360.147 154.801C361.056 153.837 362.474 152.49 364.51 151.101C362.924 151.178 360.38 151.289 357.237 151.33C350.447 151.435 349.456 151.129 347.785 152.025C344.214 153.934 344.649 157.475 341.72 158.045C339.174 158.544 338.287 155.975 335.422 156.426C333.145 156.781 332.971 158.51 328.877 160.592C327.481 161.3 325.256 162.426 324.514 161.745C323.561 160.884 325.561 157.614 325.72 157.35C324.412 157.468 322.565 157.85 321.358 159.205C319.903 160.828 320.775 162.315 319.423 164.065C317.839 166.105 315.846 165.134 313.358 167.07C310.944 168.959 312.035 170.5 309.722 173.319C306.573 177.173 303.082 176.07 301.97 178.874C300.727 182.013 304.611 184.56 302.937 187.672C302.276 188.9 300.916 189.887 299.542 190.212C297.134 190.795 295.004 189.283 294.698 189.753C294.32 190.33 297.949 192.123 297.847 194.615C297.781 196.225 296.188 197.226 296.633 197.85C297.134 198.551 299.243 197.461 300.029 198.315C300.648 198.982 299.673 200.002 300.029 200.864C300.974 203.127 309.439 200.238 311.177 202.71C312.646 204.801 309.388 210.786 305.607 211.279C302.493 211.674 300.45 208.182 297.36 209.195C296.05 209.626 295.17 210.661 294.451 211.508C293.739 212.348 291.935 214.479 292.517 215.673C293.542 217.791 300.698 214.166 304.879 217.291C306.064 218.179 306.901 219.527 307.366 220.964C305.795 221.075 304.123 221.284 302.37 221.617C297.424 222.554 293.157 224.256 289.433 226.353C286.182 226.602 283.281 227.04 277.485 226.088C272.126 225.207 269.449 224.769 267.064 223.082C262.395 219.77 261.646 214.985 257.123 214.284C255.138 213.98 253.763 214.667 252.273 213.591C250.862 212.57 250.623 210.868 250.338 208.959C249.211 201.509 248.63 197.76 247.67 196.697C245.06 193.809 241.059 195.253 239.91 192.761C239.256 191.331 240.086 189.81 242.58 185.817C250.186 173.653 252.178 172.257 253.487 171.466C255.53 170.244 258.432 168.494 261.974 168.925C265.348 169.334 265.864 171.306 269.485 171.93C274.059 172.715 279.259 170.597 279.667 168.23C279.886 166.959 278.547 166.702 278.212 164.759C277.637 161.384 281.244 159.829 280.634 157.121C280.43 156.19 279.892 155.864 275.543 152.72C269.929 148.664 269.929 148.575 269.485 148.553C265.398 148.38 264.578 156.004 256.396 161.981C252.629 164.73 252.463 163.37 247.91 166.376C246.011 167.633 238.864 172.479 234.58 181.187C231.423 187.608 231.933 191.844 228.522 192.99C225.643 193.955 223.039 191.692 221.25 193.226C219.825 194.441 221.162 196.129 219.795 199.704C218.858 202.149 217.927 202.155 216.64 205.029C216.305 205.779 215.163 208.48 215.185 210.584C215.243 214.743 219.912 218.007 223.672 220.304C238.07 229.109 252.884 232.296 254.215 232.566C266.25 235.058 276.27 236.038 276.27 236.038C276.532 236.066 276.786 236.087 277.042 236.114C275.492 237.67 274.097 239.19 272.802 240.592C266.038 247.924 261.777 252.55 261.974 259.416C261.989 260.047 262.374 269.025 268.919 273.767C270.365 274.823 271.61 275.288 272.707 275.712C270.89 277.399 269.442 278.42 268.032 279.323C265.305 281.058 263.806 281.62 262.215 281.863C257.741 282.551 254.076 280.329 246.942 275.85C239.561 271.22 235.874 268.9 233.612 264.741C232.987 263.596 232.179 261.79 230.217 259.881C228.901 258.597 226.457 256.209 223.432 255.944C218.385 255.507 216.712 261.423 210.342 262.422C206.757 262.985 204.342 261.582 201.855 260.805C191.616 257.604 176.424 263.874 167.437 273.767C160.71 281.162 160.063 289.654 158.463 306.401C157.212 319.551 156.58 326.126 157.735 331.626C158.667 336.021 160.427 341.437 157.983 343.201C156.375 344.353 153.337 343.679 151.438 342.506C148.661 340.784 149.438 338.681 147.075 337.181C143.628 335 140.297 338.409 136.894 336.257C135.192 335.181 134.385 333.299 132.771 329.543C131.476 326.523 131.694 325.724 130.589 324.912C128.167 323.135 123.164 324.058 121.623 326.537C120.597 328.169 121.79 329.37 120.648 331.161C119.288 333.313 116.816 332.82 115.805 334.174C114.612 335.757 115.819 339.319 124.044 349.213C131.462 358.143 131.185 356.087 142.224 367.731C146.151 371.876 149.089 375.188 151.438 374.445C154.121 373.584 153.38 368.258 157.496 366.342C159.685 365.321 160.5 366.551 163.073 365.648C167.262 364.183 169.677 359.33 170.098 355.462C170.462 352.171 169.356 349.838 168.643 347.824C167.43 344.381 167.423 342.054 169.371 324.217C170.796 311.185 171.524 304.617 172.28 301.999C174.446 294.543 176.272 288.55 181.98 283.947C188.533 278.669 198.067 276.933 199.913 279.323C200.531 280.113 199.834 280.781 200.161 283.947C200.445 286.752 200.671 288.959 202.343 290.432C204.342 292.196 207.818 292.375 210.095 291.355C211.455 290.744 211.651 290.035 213.003 289.737C214.888 289.313 216.64 290.203 217.855 290.891C225.17 295.015 226.421 299.124 230.457 299.222C232.5 299.271 233.139 298.25 235.308 298.763C237.532 299.284 238.797 300.819 239.91 301.999C243.954 306.29 244.935 304.88 248.637 308.714C252.746 312.956 251.997 315.163 257.363 320.746C259.371 322.829 259.297 322.342 260.272 323.523C264.433 328.564 263.152 334.334 263.427 342.041C263.712 350.137 265.312 349.019 266.577 360.093C267.799 370.757 263.494 375.043 267.064 379.764C268.527 381.707 271.522 384.215 275.303 384.86C279.128 385.506 280.751 383.743 283.79 384.86C286.895 385.999 287.12 388.553 289.847 391.567C293.076 395.143 297.039 396.282 303.177 398.052C308.282 399.517 314.805 401.398 322.085 399.898C329.074 398.461 333.292 394.469 341.72 386.478C351.486 377.222 356.365 372.598 358.445 366.113C359.027 364.294 360.038 360.468 362.329 360.093C363.383 359.92 364.255 360.565 368.147 363.793C372.124 367.107 374.117 368.773 374.444 369.349C376.64 373.202 373.891 375.188 375.898 379.535C376.029 379.812 378.501 384.95 383.417 385.555C383.759 385.596 387.483 385.999 389.235 383.929C390.595 382.326 389.729 380.452 391.17 379.535C392.544 378.667 394.079 379.868 395.053 379.069C396.203 378.132 395.285 375.458 394.805 373.98C393.592 370.203 393.105 366.252 392.144 362.406C389.672 352.525 394.035 350.005 390.69 343.895C388.813 340.472 385.119 337.007 382.442 337.646C379.411 338.361 379.672 343.895 376.385 344.59C374.255 345.034 373.44 342.853 369.354 341.576C368.532 341.319 367.586 341.103 366.583 340.971C366.532 340.958 366.473 340.951 366.416 340.944C366.262 340.924 366.11 340.902 365.957 340.888C365.826 340.874 365.703 340.86 365.572 340.853H365.565C362.99 340.624 360.263 340.965 358.692 342.506C356.693 344.458 358.155 346.769 357.478 351.068C357.035 353.901 354.023 357.774 348.024 365.418C342.433 372.536 339.582 376.146 336.876 378.611C330.368 384.526 327.139 384.992 325.72 385.089C321.358 385.38 317.969 383.235 316.514 382.311C315.947 381.957 309.773 377.973 310.697 374.904C311.227 373.133 313.555 373.57 316.027 371.431C319.656 368.301 320.979 361.884 318.697 357.781C316.886 354.532 314.261 355.331 311.424 351.533C309.656 349.164 309.278 346.714 308.515 341.811C307.3 334.049 308.035 328.412 308.267 326.766C308.937 322.134 309.686 316.955 311.904 316.579C314.296 316.177 317.482 321.51 318.937 325.148C320.972 330.23 319.94 332.757 322.332 340.652C323.75 345.353 324.631 346.137 324.994 346.436C328.775 349.511 336.2 347.894 340.992 345.284C346.148 342.471 345.509 340.02 350.447 338.341C352.228 337.736 356.46 336.291 360.874 337.646C362.415 338.118 363.725 338.854 365.739 339.139C365.87 339.16 366.008 339.181 366.146 339.194C366.285 339.208 366.423 339.221 366.568 339.228H366.575C366.611 339.235 366.642 339.235 366.678 339.235H366.721C366.773 339.242 366.816 339.249 366.866 339.249C366.968 339.257 367.07 339.264 367.172 339.264C368.611 339.306 370.256 339.346 371.295 338.341C372.56 337.111 371.528 335.701 372.626 333.48C373.608 331.488 374.844 331.785 376.145 329.89C378.006 327.175 377.942 322.989 376.261 322.023C375.477 321.566 374.925 322.17 371.658 322.829C369.317 323.307 367.477 323.675 365.354 323.412C362.248 323.016 361.944 321.69 360.147 322.023C358.031 322.406 358.14 324.294 355.057 326.419C354.351 326.898 352.09 328.363 348.876 328.73C347.77 328.862 345.74 329.091 343.538 328.272C339.953 326.925 336.76 323.107 337.24 319.128C337.298 318.615 337.553 316.475 339.297 314.962C341.196 313.31 342.97 314.06 347.057 313.226C352.49 312.115 352.86 310.087 356.148 310.33C358.489 310.511 358.751 311.581 363.171 314.039C366.808 316.052 369.717 317.045 374.931 318.822C378.814 320.143 381.192 320.954 384.465 321.6C387.898 322.274 396.419 323.954 405.793 321.287C410.812 319.864 410.768 318.697 415.167 318.045C417.851 317.648 422.803 317.351 428.257 319.434C431.036 320.496 435.66 322.259 438.119 326.537C439.616 329.133 439.747 331.681 440.38 331.626C441.159 331.556 441.304 327.64 441.347 326.376C441.442 323.829 441.086 323.266 440.867 322.989C440.009 321.92 438.853 322.252 437.472 321.135C436.336 320.218 436.038 319.114 435.696 318.357C434.169 314.962 429.42 313.025 426.802 312.491C423.421 311.803 423.015 313.351 415.655 314.498C414.63 314.656 414.411 314.663 405.154 315.268C394.645 315.962 394.465 315.982 393.518 315.885C388.639 315.392 389.708 314.33 380.588 312.185C376.917 311.324 374.538 310.977 373.796 309.254C373.142 307.72 374.538 306.866 374.611 304.471C374.713 301.026 371.927 299.625 369.92 295.673C369.084 294.021 368.772 291.431 368.147 286.265C367.826 283.607 368.066 284.669 368.147 270.99C368.154 269.49 368.161 267.172 369.6 266.36C370.655 265.763 371.615 266.478 373.477 266.36C376.466 266.172 378.589 264.047 379.054 263.582C381.622 261.005 380.319 258.888 382.69 255.251C384.327 252.736 385.214 253.333 387.294 250.854C391.904 245.349 390.224 239.19 392.872 238.585C394.565 238.197 396.435 240.46 396.987 241.134C399.489 244.162 398.82 248.001 398.689 248.773C397.874 253.41 394.443 255.133 395.292 256.638C396.369 258.54 402.027 256.091 404.019 258.493C405.168 259.868 404.055 261.596 403.292 265.665C402.376 270.559 403.482 270.741 403.052 279.087C402.717 285.468 402.515 288.682 400.87 289.967C398.143 292.085 395.228 289.488 389.235 291.355C386.348 292.25 381.731 294.5 381.717 297.139C381.708 299.589 385.664 300.061 386.567 303.852C387.206 306.553 385.533 307.713 386.567 309.408C386.878 309.921 387.817 311.095 394.325 311.719C399.176 312.192 401.597 312.421 404.747 311.719C407.284 311.156 412.528 309.99 414.687 306.165C416.135 303.602 415.386 301.278 414.927 297.832C413.757 288.973 416.658 288.848 416.622 277.698C416.593 267.373 414.083 261.082 417.109 259.416C418.52 258.638 420.214 259.36 424.142 257.798C426.214 256.965 426.76 256.354 427.05 255.944C428.257 254.209 427.145 252.564 428.257 251.549C429.515 250.405 431.69 251.771 432.62 250.854C433.856 249.647 431.624 245.779 430.927 244.606C427.479 238.801 425.007 234.636 419.532 231.178C411.371 226.033 403.256 226.693 403.292 224.929C403.314 224.11 405.408 223.45 409.597 222.151C414.716 220.569 417.283 219.777 420.017 219.611C427.05 219.166 428.57 222.304 434.322 221.693C438.147 221.284 440.693 219.548 444.016 217.291C447.034 215.244 457.076 208.418 458.8 196.232C459.396 192.032 460.785 186.616 457.345 183.27Z" fill="#040606"/>
</g>
<defs>
<radialGradient id="paint0_radial_57_77" cx="0" cy="0" r="1" gradientUnits="userSpaceOnUse" gradientTransform="translate(287.5 274.5) scale(442.609 422.595)">
<stop stop-color="#3A415E"/>
<stop offset="0.00389963" stop-color="#353B59"/>
<stop offset="0.00399963" stop-color="#3A405E"/>
<stop offset="0.03125" stop-color="#39405E"/>
<stop offset="0.0429688" stop-color="#393F5D"/>
<stop offset="0.0546875" stop-color="#393F5D"/>
<stop offset="0.0664062" stop-color="#383F5D"/>
<stop offset="0.078125" stop-color="#383E5C"/>
<stop offset="0.0898438" stop-color="#373E5C"/>
<stop offset="0.117188" stop-color="#373D5B"/>
<stop offset="0.128906" stop-color="#363D5B"/>
<stop offset="0.152344" stop-color="#363C5A"/>
<stop offset="0.164062" stop-color="#363C5A"/>
<stop offset="0.175781" stop-color="#353C59"/>
<stop offset="0.210938" stop-color="#343B59"/>
<stop offset="0.222656" stop-color="#343B58"/>
<stop offset="0.234375" stop-color="#343A57"/>
<stop offset="0.246094" stop-color="#333A57"/>
<stop offset="0.257812" stop-color="#333957"/>
<stop offset="0.277344" stop-color="#323956"/>
<stop offset="0.285156" stop-color="#323956"/>
<stop offset="0.292969" stop-color="#323856"/>
<stop offset="0.300781" stop-color="#323855"/>
<stop offset="0.308594" stop-color="#323855"/>
<stop offset="0.328125" stop-color="#313754"/>
<stop offset="0.347656" stop-color="#303754"/>
<stop offset="0.355469" stop-color="#303754"/>
<stop offset="0.363281" stop-color="#303654"/>
<stop offset="0.371094" stop-color="#303653"/>
<stop offset="0.378906" stop-color="#2F3653"/>
<stop offset="0.379" stop-color="#2F3653"/>
<stop offset="0.410056" stop-color="#2F3552"/>
<stop offset="0.410156" stop-color="#2F3552"/>
<stop offset="0.425781" stop-color="#2E3451"/>
<stop offset="0.441406" stop-color="#2E3451"/>
<stop offset="0.457031" stop-color="#2D3451"/>
<stop offset="0.472656" stop-color="#2D3350"/>
<stop offset="0.488281" stop-color="#2D334F"/>
<stop offset="0.503906" stop-color="#2C324F"/>
<stop offset="0.515625" stop-color="#2C324E"/>
<stop offset="0.527344" stop-color="#2B314E"/>
<stop offset="0.554688" stop-color="#2B314D"/>
<stop offset="0.566406" stop-color="#2A304D"/>
<stop offset="0.578125" stop-color="#2A304D"/>
<stop offset="0.589844" stop-color="#2A304C"/>
<stop offset="0.601562" stop-color="#292F4C"/>
<stop offset="0.613281" stop-color="#292F4B"/>
<stop offset="0.625" stop-color="#292F4B"/>
<stop offset="0.636719" stop-color="#292E4B"/>
<stop offset="0.644531" stop-color="#282E4A"/>
<stop offset="0.652344" stop-color="#282E4A"/>
<stop offset="0.695312" stop-color="#272D49"/>
<stop offset="0.710938" stop-color="#272D49"/>
<stop offset="0.726562" stop-color="#272D49"/>
<stop offset="0.742188" stop-color="#272C48"/>
<stop offset="0.757812" stop-color="#262C48"/>
<stop offset="0.769531" stop-color="#262C47"/>
<stop offset="0.78125" stop-color="#262B47"/>
<stop offset="0.792969" stop-color="#252B46"/>
<stop offset="0.804688" stop-color="#252B46"/>
<stop offset="0.816406" stop-color="#252A46"/>
<stop offset="0.835938" stop-color="#242A45"/>
<stop offset="0.84375" stop-color="#242A45"/>
<stop offset="0.851562" stop-color="#242945"/>
<stop offset="0.867188" stop-color="#232944"/>
<stop offset="0.882812" stop-color="#232843"/>
<stop offset="0.894531" stop-color="#222843"/>
<stop offset="0.90625" stop-color="#222843"/>
<stop offset="0.917969" stop-color="#222742"/>
<stop offset="0.925781" stop-color="#212742"/>
<stop offset="0.941406" stop-color="#212741"/>
<stop offset="0.953125" stop-color="#212641"/>
<stop offset="0.964844" stop-color="#212640"/>
<stop offset="0.980469" stop-color="#202540"/>
<stop offset="0.988281" stop-color="#202540"/>
<stop offset="1" stop-color="#1F2540"/>
</radialGradient>
<clipPath id="clip0_57_77">
<rect width="575" height="549" rx="274.5" fill="white"/>
</clipPath>
</defs>
</svg>
